# xmcd
#
# Track frame offsets:
#	150
#	18526
#	37952
#	65703
#	84979
#	100955
#	119707
#	137556
#	159834
#	174085
#	189611
#	204237
#	222988
#	238964
#	255315
#	271366
#	286443
#
# Disc length: 4029 seconds
#
# Revision: 2
# Processed by: cddbd v1.4PL0 Copyright (c) Steve Scherf et al.
# Submitted via: audiograbber 1.80.04
#
DISCID=f10fbb11
DTITLE=Various Artist - Stamp - 17 Stampende Treffers
DYEAR=2002
DGENRE=Pop
TTITLE0=DJ GW - Meisie Meisie
TTITLE1=Boy Bandz - Drowning
TTITLE2=A Jay - Daai Wyn
TTITLE3=A Jay - Because I Got High
TTITLE4=RC Boyz - Bop Bop Baby
TTITLE5=5 To 4 - Superman
TTITLE6=Juanita - Ska-Rumba
TTITLE7=RC Boyz - Hero
TTITLE8=RC Boyz - Wherever You Will Go
TTITLE9=A Jay - Kleinboet Ferdi
TTITLE10=DJ J and G - Country Roads
TTITLE11=DJ Heavy - How You Remind Me
TTITLE12=BB - Star 69
TTITLE13=DJ Cathy - Can't Get You Out Of My Head
TTITLE14=DJ Thomas - The Music's No Good Without You
TTITLE15=DJ D - Ou Ryperd
TTITLE16=DJ BB - Life
EXTD=
EXTT0=
EXTT1=
EXTT2=
EXTT3=
EXTT4=
EXTT5=
EXTT6=
EXTT7=
EXTT8=
EXTT9=
EXTT10=
EXTT11=
EXTT12=
EXTT13=
EXTT14=
EXTT15=
EXTT16=
PLAYORDER=
